<svg xmlns="http://www.w3.org/2000/svg" version="1.1" width="41.569219381653056" height="43.5"><path d="M12.99038106 16.5L12.99038106 28.5L15.58845727 30L15.58845727 24L20.78460969 21L25.98076211 24L25.98076211 30L28.57883832 28.5L28.57883832 4.5L20.78460969 0L12.99038106 4.5Z" fill="cyan"/><path d="M0 15L0 27L2.59807621 28.5L5.19615242 30L5.19615242 36L15.58845727 42L15.58845727 36L20.78460969 39L25.98076211 36L25.98076211 42L36.37306696 36L36.37306696 30L41.56921938 27L41.56921938 15L36.37306696 12L36.37306696 6L25.98076211 0L23.3826859 1.5L28.57883832 4.5L28.57883832 28.5L25.98076211 30L25.98076211 24L20.78460969 21L15.58845727 24L15.58845727 30L12.99038106 28.5L12.99038106 4.5L18.18653348 1.5L15.58845727 0L5.19615242 6L5.19615242 12Z" fill="#bbbbbb"/><path d="M0 30L2.59807621 31.5L2.59807621 34.5L5.19615242 36L5.19615242 30L2.59807621 28.5L0 27ZM15.58845727 42L18.18653348 43.5L20.78460969 42L23.3826859 43.5L25.98076211 42L25.98076211 36L20.78460969 39L15.58845727 36ZM41.56921938 30L38.97114317 31.5L38.97114317 34.5L36.37306696 36L36.37306696 30L41.56921938 27Z" fill="#ffd700"/><path d="M0 15L0 30L2.59807621 31.5L2.59807621 34.5L18.18653348 43.5L18.18653348 40.5L20.78460969 42L20.78460969 27L15.58845727 24L20.78460969 21L20.78460969 9L12.99038106 4.5L12.99038106 28.5L15.58845727 30L15.58845727 36L5.19615242 30L5.19615242 18ZM5.19615242 12L10.39230485 15L10.39230485 9L5.19615242 6ZM33.77499075 16.5L36.37306696 18L36.37306696 30L28.57883832 25.5L28.57883832 7.5L31.17691454 9L31.17691454 15ZM23.3826859 40.5L23.3826859 43.5L20.78460969 42Z" fill="rgba(0,0,0,0.15)"/><path d="M7.79422863 16.5L5.19615242 18L5.19615242 30L12.99038106 25.5L12.99038106 7.5L10.39230485 9L10.39230485 15ZM41.56921938 15L41.56921938 30L38.97114317 31.5L38.97114317 34.5L23.3826859 43.5L23.3826859 40.5L20.78460969 42L18.18653348 40.5L18.18653348 43.5L20.78460969 42L20.78460969 27L25.98076211 24L20.78460969 21L20.78460969 9L28.57883832 4.5L28.57883832 28.5L25.98076211 30L25.98076211 36L36.37306696 30L36.37306696 18ZM36.37306696 12L31.17691454 15L31.17691454 9L36.37306696 6Z" fill="rgba(0,0,0,0.4)"/></svg>